<?xml version="1.0" encoding="UTF-8" standalone="no"?>
<!DOCTYPE svg PUBLIC "-//W3C//DTD SVG 1.1//EN" "http://www.w3.org/Graphics/SVG/1.1/DTD/svg11.dtd">
<svg width="100%" height="100%" viewBox="0 0 625 615" version="1.1" xmlns="http://www.w3.org/2000/svg" xmlns:xlink="http://www.w3.org/1999/xlink" xml:space="preserve" xmlns:serif="http://www.serif.com/" style="fill-rule:evenodd;clip-rule:evenodd;stroke-linejoin:round;stroke-miterlimit:2;">
    <g transform="matrix(1,0,0,1,-287.775,-142.918)">
        <path d="M742.585,257.032C742.509,280.874 740.896,304.687 737.755,328.322C737.645,329.152 737.525,329.982 737.415,330.812L514.135,330.812C513.475,329.992 512.825,329.162 512.195,328.322C510.095,325.542 508.125,322.682 506.315,319.722C497.615,305.462 493.575,288.732 497.465,277.152L497.535,276.972C498.374,274.436 499.707,272.091 501.455,270.072C510.415,259.872 528.655,261.462 545.245,269.562C530.315,253.402 518.385,232.972 517.385,214.682C516.405,196.842 525.665,184.042 535.725,173.152C536.055,172.792 536.385,172.442 536.715,172.092C536.875,171.912 537.045,171.742 537.205,171.562C545.055,163.262 554.215,155.072 567.545,155.982C582.165,156.982 598.435,169.132 609.875,183.332C621.315,197.522 628.955,213.672 636.695,229.432C644.445,245.182 652.825,261.332 665.195,274.762C648.425,253.792 634.865,229.902 629.775,206.622C624.685,183.342 628.925,160.932 643.705,149.872C648.192,146.617 653.395,144.484 658.875,143.652C659.515,143.542 660.165,143.452 660.825,143.372C674.555,141.732 690.985,146.392 705.005,157.672C720.445,170.092 731.205,188.572 736.605,206.142C742.005,223.712 742.665,240.652 742.585,257.032Z" style="fill:rgb(242,242,242);fill-rule:nonzero;"/>
    </g>
    <g transform="matrix(1,0,0,1,-287.775,-142.918)">
        <path d="M596.915,330.812L592.645,330.812C591.285,329.972 589.918,329.142 588.545,328.322C587.695,327.792 586.835,327.282 585.975,326.762C571.765,318.192 557.468,309.975 543.085,302.112C528.715,294.242 514.275,286.739 499.765,279.602C498.975,279.263 498.535,278.4 498.725,277.562C498.74,277.508 498.764,277.458 498.795,277.412C498.995,277.032 499.445,276.872 500.105,277.192C501.885,278.072 503.675,278.952 505.455,279.852C520.005,287.112 534.495,294.738 548.925,302.732C563.345,310.722 577.685,319.069 591.945,327.772C592.245,327.952 592.545,328.142 592.845,328.322C594.205,329.152 595.555,329.982 596.915,330.812Z" style="fill:white;fill-rule:nonzero;"/>
    </g>
    <g transform="matrix(1,0,0,1,-287.775,-142.918)">
        <path d="M651.965,330.812L649.325,330.812C648.725,329.982 648.135,329.152 647.535,328.322C633.435,308.782 619.339,289.242 605.245,269.702C582.165,237.712 559.092,205.722 536.025,173.732C535.889,173.56 535.787,173.363 535.725,173.152C535.525,172.442 536.045,172.022 536.715,172.092C537.286,172.17 537.797,172.491 538.115,172.972C551.055,190.912 563.992,208.845 576.925,226.772C599.885,258.602 622.842,290.429 645.795,322.252C647.255,324.272 648.715,326.302 650.175,328.322C650.775,329.152 651.375,329.982 651.965,330.812Z" style="fill:white;fill-rule:nonzero;"/>
    </g>
    <g transform="matrix(1,0,0,1,-287.775,-142.918)">
        <path d="M710.695,315.152C710.585,319.602 710.315,323.982 709.955,328.322C709.885,329.152 709.815,329.982 709.745,330.812L706.975,330.812C707.055,329.982 707.135,329.152 707.205,328.322C707.755,322.052 708.135,315.712 708.155,309.202C708.128,291.154 706.268,273.155 702.605,255.482C698.71,236.453 693.166,217.799 686.035,199.732C678.55,180.676 669.552,162.251 659.125,144.632C658.929,144.345 658.841,143.998 658.875,143.652C658.985,142.862 660.035,142.622 660.825,143.372C660.981,143.519 661.116,143.687 661.225,143.872C662.515,146.062 663.782,148.259 665.025,150.462C675.071,168.181 683.688,186.673 690.795,205.762C697.564,223.89 702.74,242.575 706.265,261.602C709.565,279.254 711.05,297.197 710.695,315.152Z" style="fill:white;fill-rule:nonzero;"/>
    </g>
    <g transform="matrix(1,0,0,1,-287.775,-142.918)">
        <path d="M903.495,328.322L296.495,328.322C291.713,328.326 287.779,332.26 287.775,337.042L287.775,748.362C287.779,753.144 291.713,757.077 296.495,757.082L903.495,757.082C906.045,757.082 908.471,755.962 910.125,754.022C910.194,753.947 910.258,753.866 910.315,753.782C910.836,753.145 911.257,752.434 911.565,751.672C912.004,750.624 912.228,749.498 912.225,748.362L912.225,337.042C912.22,332.256 908.28,328.322 903.495,328.322ZM909.735,748.362C909.736,749.578 909.378,750.768 908.705,751.782C908.107,752.674 907.296,753.403 906.345,753.902C905.464,754.357 904.486,754.594 903.495,754.592L296.495,754.592C293.079,754.588 290.269,751.778 290.265,748.362L290.265,337.042C290.269,333.626 293.079,330.816 296.495,330.812L903.495,330.812C906.914,330.811 909.73,333.622 909.735,337.042L909.735,748.362Z" style="fill:rgb(63,61,86);fill-rule:nonzero;"/>
    </g>
    <rect x="1.243" y="220.353" width="621.957" height="2.493" style="fill:rgb(63,61,86);"/>
    <circle cx="22.432" cy="204.1" r="7.478" style="fill:rgb(63,61,86);"/>
    <circle cx="43.932" cy="204.1" r="7.478" style="fill:rgb(63,61,86);"/>
    <circle cx="65.433" cy="204.1" r="7.478" style="fill:rgb(63,61,86);"/>
    <g transform="matrix(1,0,0,1,-287.775,-142.918)">
        <path d="M564.752,575.192C557.273,570.323 553.553,559.008 555.385,548.66C557.218,538.312 564.12,529.4 572.393,525.556C580.56,521.875 590.056,522.55 597.621,527.349C605.208,531.988 615.938,534.53 619.541,543.812C622.31,550.945 618.798,565.429 615.072,572.357C611.851,578.345 605.73,581.085 599.98,582.275C587.116,584.898 573.726,581.809 563.311,573.814L564.752,575.192Z" style="fill:rgb(47,46,65);fill-rule:nonzero;"/>
    </g>
    <path d="M273.076,487.234L267.096,497.544L266.306,498.904L265.156,500.904L247.526,500.904L248.716,498.904L251.796,493.714L258.976,481.594L267.106,484.844L273.076,487.234Z" style="fill:rgb(255,184,184);fill-rule:nonzero;"/>
    <g transform="matrix(1,0,0,1,-287.775,-142.918)">
        <path d="M533.981,643.822L530.761,641.822L530.361,641.572L550.571,604.742C552.326,601.523 555.299,599.138 558.821,598.122C561.023,597.466 563.357,597.38 565.601,597.872C566.911,598.148 568.172,598.62 569.341,599.272C569.823,599.536 570.287,599.83 570.731,600.152C572.44,601.35 573.845,602.933 574.831,604.772C577.219,609.15 577.058,614.495 574.411,618.722L566.621,631.172L559.961,641.822L558.711,643.822L533.981,643.822Z" style="fill:rgb(47,46,65);fill-rule:nonzero;"/>
    </g>
    <circle cx="298.13" cy="420.784" r="24.561" style="fill:rgb(255,184,184);"/>
    <g transform="matrix(1,0,0,1,-287.775,-142.918)">
        <path d="M610.561,643.822L555.351,643.822L555.601,643.112C555.461,642.682 555.331,642.252 555.211,641.822C555.081,641.372 554.971,640.912 554.871,640.462C553.974,636.276 553.978,631.946 554.881,627.762C557.931,612.782 570.101,600.612 570.101,600.612C570.311,600.452 570.521,600.302 570.731,600.152C572.542,598.826 574.506,597.725 576.581,596.872C585.621,593.122 595.101,594.632 601.471,596.572C603.689,597.243 605.858,598.068 607.961,599.042C608.701,599.392 609.101,599.612 609.101,599.612L609.731,618.822L610.491,641.822L610.561,643.822Z" style="fill:white;fill-rule:nonzero;"/>
    </g>
    <g transform="matrix(1,0,0,1,-287.775,-142.918)">
        <path d="M636.101,641.822L631.881,620.362L627.621,598.722C627.259,596.897 625.804,595.474 623.971,595.152L615.051,593.612L606.751,592.182C605.122,591.888 603.458,592.525 602.441,593.832C601.818,594.609 601.475,595.575 601.471,596.572C601.471,597.188 601.597,597.797 601.841,598.362C606.171,608.462 606.251,624.452 605.151,641.822C605.101,642.482 605.061,643.152 605.011,643.822L636.501,643.822L636.101,641.822Z" style="fill:rgb(47,46,65);fill-rule:nonzero;"/>
    </g>
    <g transform="matrix(1,0,0,1,-287.775,-142.918)">
        <path d="M576.581,596.872C576.076,594.868 574.259,593.453 572.192,593.453C571.194,593.453 570.223,593.783 569.431,594.392L565.601,597.872L549.921,612.152C549.433,612.59 549.05,613.134 548.801,613.742C547.031,617.972 543.581,626.322 539.571,636.632C538.921,638.312 538.251,640.042 537.561,641.822C537.321,642.482 537.061,643.152 536.801,643.822L562.641,643.822C562.851,643.152 563.061,642.482 563.271,641.822C564.421,638.192 565.541,634.632 566.621,631.172C569.781,621.122 572.631,611.992 574.831,604.772C575.441,602.772 575.998,600.925 576.501,599.232C576.736,598.466 576.764,597.652 576.581,596.872Z" style="fill:rgb(47,46,65);fill-rule:nonzero;"/>
    </g>
    <path d="M339.296,500.904L355.796,500.904L355.566,500.344L354.956,498.904L345.546,476.574L344.106,477.444L332.546,484.434L338.476,498.904L339.296,500.904Z" style="fill:rgb(255,184,184);fill-rule:nonzero;"/>
    <g transform="matrix(1,0,0,1,-287.775,-142.918)">
        <path d="M632.361,601.782C629.732,594.899 622.036,591.267 615.051,593.612C614.619,593.755 614.195,593.922 613.781,594.112C611.412,595.169 609.393,596.879 607.961,599.042C607.377,599.906 606.897,600.835 606.531,601.812C605.221,605.234 605.333,609.042 606.841,612.382L609.731,618.822L620.071,641.822L620.971,643.822L641.901,643.822L643.341,643.262L647.081,641.822L647.601,641.622L632.361,601.782Z" style="fill:rgb(47,46,65);fill-rule:nonzero;"/>
    </g>
    <g transform="matrix(1,0,0,1,-287.775,-142.918)">
        <path d="M605.195,535.494C606.95,536.02 608.854,535.297 609.818,533.74C610.719,532.171 610.845,530.269 610.156,528.596C609.459,526.947 608.36,525.498 606.96,524.382C605.371,522.943 603.435,521.941 601.343,521.473C599.229,521.019 597.019,521.505 595.29,522.804C593.577,524.159 592.853,526.429 593.464,528.526C594.1,530.371 595.823,531.606 597.543,532.527C600.956,534.349 604.72,535.419 608.581,535.665L605.195,535.494Z" style="fill:rgb(47,46,65);fill-rule:nonzero;"/>
    </g>
    <g transform="matrix(1,0,0,1,-287.775,-142.918)">
        <path d="M609.973,562.969C606.025,563.513 606.532,561.503 604.95,557.844C603.369,554.185 601.252,549.842 597.283,549.471C594.031,549.168 591.351,551.768 588.716,553.699C584.02,557.14 577.691,558.824 572.247,556.76C566.803,554.695 563.02,548.207 565.085,542.764C566.385,539.727 568.887,537.361 571.992,536.235C575.075,535.138 578.349,534.684 581.614,534.898C588.876,535.13 595.999,536.953 602.478,540.239C606.951,542.511 611.304,545.762 613.001,550.483C614.697,555.204 615.814,561.838 610.963,563.115L609.973,562.969Z" style="fill:rgb(47,46,65);fill-rule:nonzero;"/>
    </g>
    <g transform="matrix(1,0,0,1,-287.775,-142.918)">
        <path d="M603.177,522.509C601.225,519.112 602.836,514.45 606.03,512.18C609.223,509.91 613.507,509.688 617.318,510.598C624.979,512.528 631.05,518.413 633.218,526.009C634.835,531.951 633.874,538.332 635.244,544.335C637.731,555.236 647.508,563.035 658.69,563.035C660.983,563.035 663.265,562.707 665.466,562.06C669.568,560.856 673.737,557.927 674.14,553.671C675.008,563.666 669.39,573.166 660.212,577.22C654.927,579.425 649.032,579.568 643.307,579.421C639.577,579.326 635.761,579.101 632.319,577.658C627.511,575.465 623.784,571.424 621.986,566.454C620.234,561.507 619.761,556.197 620.611,551.019C621.174,546.991 622.294,543.042 622.608,538.987C622.921,534.931 622.326,530.601 619.826,527.393C617.326,524.184 612.551,522.546 608.996,524.523C607.567,525.318 606.415,526.616 604.863,527.128C603.311,527.641 601.111,526.74 601.252,525.111L603.177,522.509Z" style="fill:rgb(47,46,65);fill-rule:nonzero;"/>
    </g>
    <g transform="matrix(1,0,0,1,-287.775,-142.918)">
        <path d="M770.781,643.822L770.971,641.822L776.611,583.142C778.46,581.694 780.446,580.432 782.541,579.372C794.151,573.522 805.351,576.322 811.411,578.742C813.017,579.371 814.569,580.13 816.051,581.012L819.351,641.822L819.461,643.822L770.781,643.822Z" style="fill:rgb(255,245,221);fill-rule:nonzero;"/>
    </g>
    <circle cx="509.419" cy="400.045" r="24.561" style="fill:rgb(255,184,184);"/>
    <g transform="matrix(1,0,0,1,-287.775,-142.918)">
        <path d="M817.122,557.94C819.478,555.456 820.793,552.161 820.793,548.737C820.793,541.403 814.758,535.368 807.423,535.368C807.275,535.368 807.126,535.37 806.977,535.375C803.581,535.489 800.38,536.879 797.139,537.899C792.227,539.57 786.986,540.042 781.854,539.275C776.693,538.474 772.032,535.722 768.838,531.59C765.799,527.413 764.851,521.62 766.998,516.922C769.476,511.499 775.266,508.511 780.712,506.082C782.908,504.983 785.254,504.212 787.674,503.795C790.124,503.388 792.636,504.021 794.6,505.541C796.131,506.857 797.028,508.836 798.693,509.976C800.568,511.261 803.003,511.227 805.264,511.453C818.082,512.736 827.958,523.65 827.958,536.532C827.958,544.636 824.05,552.261 817.472,556.993L817.122,557.94Z" style="fill:rgb(47,46,65);fill-rule:nonzero;"/>
    </g>
    <g transform="matrix(1,0,0,1,-287.775,-142.918)">
        <path d="M786.201,589.532L782.541,579.372L782.313,578.739C782.013,577.906 781.218,577.348 780.334,577.348C779.918,577.348 779.512,577.471 779.166,577.702L775.011,580.472C775.011,580.472 748.361,580.472 746.221,596.462C746.191,596.712 746.151,596.992 746.121,597.292C746.12,597.306 746.116,597.319 746.111,597.332C745.841,598.382 740.811,617.822 736.491,641.822C736.371,642.482 736.251,643.152 736.131,643.822L794.041,643.822L794.041,643.822C795.926,619.713 794.871,597.297 786.201,589.532Z" style="fill:rgb(47,46,65);fill-rule:nonzero;"/>
    </g>
    <g transform="matrix(1,0,0,1,-287.775,-142.918)">
        <path d="M855.281,641.822C852.121,617.202 847.601,597.292 847.601,597.292C847.561,596.992 847.521,596.712 847.491,596.462C845.361,580.472 818.711,580.472 818.711,580.472L814.558,577.703C814.213,577.473 813.807,577.35 813.391,577.35C812.506,577.35 811.711,577.909 811.411,578.742L807.521,589.532C798.851,597.297 797.797,619.712 799.681,643.821L799.681,643.822L855.531,643.822C855.451,643.152 855.361,642.482 855.281,641.822Z" style="fill:rgb(47,46,65);fill-rule:nonzero;"/>
    </g>
    <g transform="matrix(1,0,0,1,-287.775,-142.918)">
        <path d="M386.201,585.762L380.261,641.822L380.051,643.822L363.981,643.822C364.171,643.172 364.361,642.502 364.561,641.822C369.121,626.182 375.331,603.352 374.661,597.302C373.611,587.862 380.961,584.712 380.961,584.712L381.421,584.802L386.201,585.762Z" style="fill:rgb(72,51,0);fill-rule:nonzero;"/>
    </g>
    <circle cx="124.343" cy="400.979" r="24.561" style="fill:rgb(160,97,106);"/>
    <g transform="matrix(1,0,0,1,-287.775,-142.918)">
        <path d="M443.911,631.922C442.672,634.205 441.658,636.603 440.881,639.082C440.591,639.962 440.311,640.882 440.051,641.822C439.861,642.472 439.691,643.142 439.521,643.822L374.741,643.822C374.831,643.162 374.911,642.492 375.001,641.822C378.311,615.672 380.991,589.132 381.421,584.802C381.461,584.392 381.481,584.182 381.481,584.182C420.301,563.722 448.631,590.482 448.631,590.482C448.631,590.482 448.671,590.672 448.731,591.042C449.351,594.782 452.511,616.622 443.911,631.922Z" style="fill:rgb(72,51,0);fill-rule:nonzero;"/>
    </g>
    <g transform="matrix(1,0,0,1,-287.775,-142.918)">
        <path d="M440.881,639.082L436.561,629.822L437.611,593.102L448.731,591.042L449.121,590.972C454.868,594.312 459.317,599.502 461.741,605.692C463.901,611.092 468.011,627.332 471.481,641.822C471.641,642.492 471.801,643.162 471.961,643.822L443.091,643.822L442.161,641.822L440.881,639.082Z" style="fill:rgb(72,51,0);fill-rule:nonzero;"/>
    </g>
    <g transform="matrix(1,0,0,1,-287.775,-142.918)">
        <path d="M480.391,478.822L338.371,478.822C332.071,478.829 326.889,484.011 326.881,490.312L326.881,632.332C326.889,638.632 332.071,643.814 338.371,643.822L480.391,643.822C486.693,643.818 491.877,638.633 491.881,632.332L491.881,490.312C491.877,484.01 486.693,478.826 480.391,478.822ZM489.881,632.332C489.877,637.536 485.596,641.817 480.391,641.822L338.371,641.822C333.168,641.814 328.889,637.535 328.881,632.332L328.881,490.312C328.889,485.109 333.168,480.83 338.371,480.822L480.391,480.822C485.596,480.826 489.877,485.108 489.881,490.312L489.881,632.332ZM380.261,641.822L380.051,643.822L439.521,643.822C439.691,643.142 439.861,642.472 440.051,641.822L380.261,641.822Z" style="fill:rgb(63,61,86);fill-rule:nonzero;"/>
    </g>
    <g transform="matrix(1,0,0,1,-287.775,-142.918)">
        <path d="M671.001,478.822L528.981,478.822C522.681,478.829 517.499,484.011 517.491,490.312L517.491,632.332C517.499,638.632 522.681,643.814 528.981,643.822L671.001,643.822C677.303,643.818 682.487,638.633 682.491,632.332L682.491,490.312C682.487,484.01 677.303,478.826 671.001,478.822ZM680.491,632.332C680.487,637.536 676.206,641.817 671.001,641.822L528.981,641.822C523.778,641.814 519.499,637.535 519.491,632.332L519.491,490.312C519.499,485.109 523.778,480.83 528.981,480.822L671.001,480.822C676.206,480.826 680.487,485.108 680.491,490.312L680.491,632.332ZM555.211,641.822C555.331,642.252 555.461,642.682 555.601,643.112L555.351,643.822L605.011,643.822C605.061,643.152 605.101,642.482 605.151,641.822L555.211,641.822Z" style="fill:rgb(63,61,86);fill-rule:nonzero;"/>
    </g>
    <g transform="matrix(1,0,0,1,-287.775,-142.918)">
        <path d="M861.621,478.822L719.601,478.822C713.3,478.826 708.115,484.01 708.111,490.312L708.111,632.332C708.115,638.634 713.3,643.818 719.601,643.822L861.621,643.822C867.922,643.814 873.104,638.632 873.111,632.332L873.111,490.312C873.104,484.012 867.922,478.83 861.621,478.822ZM871.111,632.332C871.103,637.535 866.824,641.814 861.621,641.822L719.601,641.822C714.397,641.818 710.116,637.536 710.111,632.332L710.111,490.312C710.116,485.107 714.397,480.826 719.601,480.822L861.621,480.822C866.824,480.83 871.103,485.109 871.111,490.312L871.111,632.332ZM794.191,641.822C794.141,642.482 794.091,643.152 794.041,643.822L837.131,643.822C837.211,643.162 837.301,642.492 837.381,641.822L794.191,641.822Z" style="fill:rgb(63,61,86);fill-rule:nonzero;"/>
    </g>
    <g transform="matrix(1,0,0,1,-287.775,-142.918)">
        <path d="M764.996,701.822L434.996,701.822C430.607,701.822 426.996,698.211 426.996,693.822C426.996,689.433 430.607,685.822 434.996,685.822L764.996,685.822C769.385,685.822 772.996,689.433 772.996,693.822C772.996,698.211 769.385,701.822 764.996,701.822Z" style="fill:rgb(204,204,204);fill-rule:nonzero;"/>
    </g>
    <g transform="matrix(1,0,0,1,-287.775,-142.918)">
        <path d="M672.496,436.822L527.496,436.822C523.107,436.822 519.496,433.211 519.496,428.822C519.496,424.433 523.107,420.822 527.496,420.822L672.496,420.822C676.885,420.822 680.496,424.433 680.496,428.822C680.496,433.211 676.885,436.822 672.496,436.822Z" style="fill:rgb(72,51,0);fill-rule:nonzero;"/>
    </g>
    <g transform="matrix(1,0,0,1,-287.775,-142.918)">
        <path d="M423.866,565.296C425.577,566.984 428.299,567.158 430.212,565.702C436,561.411 441.082,556.07 444.089,549.556C447.536,542.091 447.92,532.93 443.765,525.835C440.253,519.838 434.051,515.967 427.869,512.789C425.469,511.435 422.884,510.438 420.195,509.832C417.479,509.232 414.634,509.692 412.244,511.115C409.855,512.612 408.621,515.435 409.143,518.206C406.174,514.818 402.371,512.265 398.111,510.8C395.429,509.751 392.491,509.538 389.686,510.189C385.764,511.302 382.9,514.787 381.334,518.551C380.067,521.415 379.629,524.577 380.071,527.676C380.541,530.794 382.312,533.571 384.942,535.311C388.185,537.317 392.322,537.173 396.047,536.353C399.771,535.533 403.377,534.107 407.173,533.747C410.97,533.386 415.198,534.333 417.508,537.367C419.135,539.504 419.553,542.295 419.918,544.956L421.818,558.795C421.974,560.797 422.485,562.755 423.328,564.578C423.474,564.84 423.655,565.082 423.866,565.296Z" style="fill:rgb(47,46,65);fill-rule:nonzero;"/>
    </g>
</svg>
