<?xml version="1.0" encoding="UTF-8" standalone="no"?>
<!DOCTYPE svg PUBLIC "-//W3C//DTD SVG 1.1//EN" "http://www.w3.org/Graphics/SVG/1.1/DTD/svg11.dtd">
<svg width="100%" height="100%" viewBox="0 0 991 800" version="1.1" xmlns="http://www.w3.org/2000/svg" xmlns:xlink="http://www.w3.org/1999/xlink" xml:space="preserve" xmlns:serif="http://www.serif.com/" style="fill-rule:evenodd;clip-rule:evenodd;stroke-linejoin:round;stroke-miterlimit:2;">
    <g transform="matrix(1,0,0,1,-104.53,-50.34)">
        <path d="M1094,514.11C1090.45,482.25 1080.12,452.11 1066.65,425.18C1036.25,364.33 990.18,318.93 940.38,286.41C939.9,286.09 939.38,285.79 938.93,285.48C944.429,278.965 948.36,271.273 950.42,263C965.74,200.23 862.42,121.11 719.72,86.3C605.2,58.4 500.1,67.48 455.12,104.6C350.2,98 240.74,162.56 168,262C142,297.59 120,339.63 110.35,387.16C98.61,444.72 105.63,506.67 122.1,562.22C134.79,605 153.33,645.08 176.64,679.41C178.3,681.85 179.983,684.263 181.69,686.65C184.63,690.763 187.63,694.763 190.69,698.65C209.89,723.1 231.75,743.86 255.79,759.57C269.448,768.525 284.112,775.842 299.48,781.37C340.48,796.05 384.48,796.66 425,781.37C431.791,778.812 438.417,775.837 444.84,772.46C448.4,770.6 451.92,768.6 455.4,766.46C462.11,762.34 468.7,757.74 475.24,752.96C484.31,746.32 493.24,739.32 502.35,732.78L503.13,732.21C513.83,724.53 524.66,717.5 535.95,712.44C543.471,708.977 551.432,706.564 559.61,705.27C571.713,703.55 584.048,704.509 595.74,708.08C597.96,708.72 600.18,709.45 602.38,710.25C609.533,712.893 616.462,716.107 623.1,719.86C651.94,735.86 679.54,761.37 707.86,781.37C711.86,784.23 715.97,786.98 720.05,789.57C756.18,812.5 795.92,823.68 835.24,834.52C879.82,846.82 927,858.76 970.13,839.61C995.13,828.52 1016.78,807.49 1034.13,781.37C1041.73,769.858 1048.4,757.756 1054.07,745.18C1056.89,738.96 1059.53,732.627 1061.98,726.18C1076.24,688.68 1084.53,647.48 1090.25,606.18C1094.49,575.78 1097.37,544.65 1094,514.11Z" style="fill:rgb(108,99,255);fill-opacity:0.1;fill-rule:nonzero;"/>
    </g>
    <g opacity="0.1">
        <g transform="matrix(1,0,0,1,-104.53,-50.34)">
            <path d="M415.91,583.52C416.22,584.41 416.54,585.27 416.91,586.11C423.503,580.943 429.89,575.61 436.07,570.11C439.764,568.464 442.82,565.653 444.77,562.11C446.55,560.43 448.32,558.71 450.07,557C449.313,556.151 448.501,555.353 447.64,554.61C441.72,549.42 434.4,547.24 427.71,549.45C421.02,551.66 416.45,557.77 414.78,565.45C413.538,571.466 413.929,577.706 415.91,583.52Z" style="fill:rgb(63,61,86);fill-rule:nonzero;"/>
        </g>
        <g transform="matrix(1,0,0,1,-104.53,-50.34)">
            <path d="M404.93,550.3C406.801,556.134 410.195,561.364 414.76,565.45C420.68,570.62 427.99,572.81 434.69,570.59C435.15,570.43 435.59,570.26 436.05,570.08C439.744,568.434 442.8,565.623 444.75,562.08C446.091,559.745 447.06,557.214 447.62,554.58C449.969,542.361 445.797,529.762 436.62,521.36C430.69,516.17 423.38,513.99 416.69,516.2C410,518.41 405.43,524.52 403.76,532.2C402.526,538.229 402.93,544.48 404.93,550.3Z" style="fill:rgb(63,61,86);fill-rule:nonzero;"/>
        </g>
        <g transform="matrix(0.94948,-0.313827,0.313827,0.94948,-243.72,105.63)">
            <ellipse cx="414.71" cy="510.2" rx="21.87" ry="28.63" style="fill:rgb(63,61,86);"/>
        </g>
        <g transform="matrix(0.94948,-0.313827,0.313827,0.94948,-233.85,100.5)">
            <ellipse cx="403.73" cy="476.99" rx="21.87" ry="28.63" style="fill:rgb(63,61,86);"/>
        </g>
        <g transform="matrix(0.94948,-0.313827,0.313827,0.94948,-223.98,95.38)">
            <ellipse cx="392.75" cy="443.77" rx="21.87" ry="28.63" style="fill:rgb(63,61,86);"/>
        </g>
        <g transform="matrix(1,0,0,1,-104.53,-50.34)">
            <path d="M395.32,190.75C396.97,186.2 398.306,181.542 399.32,176.81L341.8,185.89L400.95,166.82C404.149,138.161 395.405,109.414 376.79,87.39L311.21,154.63L366.47,76.83C347.301,59.792 322.527,50.374 296.881,50.374C239.417,50.374 192.131,97.66 192.131,155.124C192.131,190.209 209.758,223.043 239,242.43C236.434,249.513 234.64,256.852 233.65,264.32L316.65,277.7L232.76,277.32C232.514,312.687 250.188,345.874 279.67,365.41C275.537,376.835 273.422,388.893 273.422,401.043C273.422,458.502 320.704,505.783 378.162,505.783C435.621,505.783 482.902,458.502 482.902,401.043C482.902,365.945 465.261,333.101 436,313.72C452.414,268.405 435.534,217.33 395.35,190.72L395.32,190.75Z" style="fill:rgb(108,99,255);fill-rule:nonzero;"/>
        </g>
        <g transform="matrix(1,0,0,1,-104.53,-50.34)">
            <path d="M238,311C245.341,333.313 260.008,352.506 279.61,365.45C275.492,376.856 273.386,388.892 273.386,401.019C273.386,458.477 320.667,505.759 378.126,505.759C435.584,505.759 482.866,458.477 482.866,401.019C482.866,365.937 465.24,333.105 436,313.72C443.71,292.39 234.34,299.79 238,311Z" style="fill-opacity:0.1;fill-rule:nonzero;"/>
        </g>
    </g>
    <g transform="matrix(1,0,0,1,-104.53,-50.34)">
        <path d="M492.62,300.54C490.13,295.46 489.2,289.73 488.3,284.11C483.02,250.93 478.08,215.11 492.42,185.04C494.68,180.31 497.42,175.71 501.42,172.48C505.7,169.03 511.01,167.39 515.97,165.15C530.37,158.67 541.97,147.04 554.63,137.39C567.29,127.74 582.57,119.69 598.08,122.15C606.08,123.42 613.48,127.42 621.24,129.93C643.16,137.03 668.46,132.4 688.15,144.71C695.26,149.16 701.06,155.51 706.76,161.79L732.19,189.79C739.08,197.37 746.1,205.14 750.27,214.64C754.44,224.14 755.32,235.85 750.01,244.71C747.34,249.18 743.12,253.05 742.66,258.3C742.16,264 746.3,268.9 747.81,274.4C751.81,288.93 737.14,301.4 723.76,307.14C683.33,324.44 638.85,322.45 596.05,321.74C564.18,321.19 511,337.92 492.62,300.54Z" style="fill:rgb(63,61,86);fill-rule:nonzero;"/>
    </g>
    <g transform="matrix(1,0,0,1,-104.53,-50.34)">
        <path d="M564.52,372.45C561.71,379.16 555.67,383.9 549.7,388.07C543.73,392.24 537.36,396.21 530.17,396.55C542.84,412.84 560.17,424.82 577.11,436.55C585,442 593,447.44 602,450.52C610.26,453.34 619.05,454.04 627.69,455.22C638.69,456.73 649.64,459.06 660.69,458.6C680.38,457.78 699.21,447.85 712.27,433.09C725.33,418.33 732.81,399.09 734.83,379.46C727.83,379.35 721.37,375.46 715.72,371.22C708.81,366.05 702.33,360.07 697.87,352.68C693.04,344.68 690.87,335.4 688.67,326.31C665.36,325.61 642.05,324.92 618.73,325.37C610.24,325.53 601.73,325.86 593.45,327.97C585.56,329.97 569.08,335.13 564.27,342.24C561.5,346.34 564.27,350.56 565.27,354.98C566.55,360.79 566.87,366.86 564.52,372.45Z" style="fill:rgb(190,111,114);fill-rule:nonzero;"/>
    </g>
    <g transform="matrix(1,0,0,1,-104.53,-50.34)">
        <path d="M564.52,372.45C561.71,379.16 555.67,383.9 549.7,388.07C543.73,392.24 537.36,396.21 530.17,396.55C542.84,412.84 560.17,424.82 577.11,436.55C585,442 593,447.44 602,450.52C610.26,453.34 619.05,454.04 627.69,455.22C638.69,456.73 649.64,459.06 660.69,458.6C680.38,457.78 699.21,447.85 712.27,433.09C725.33,418.33 732.81,399.09 734.83,379.46C727.83,379.35 721.37,375.46 715.72,371.22C708.81,366.05 702.33,360.07 697.87,352.68C693.04,344.68 690.87,335.4 688.67,326.31C665.36,325.61 642.05,324.92 618.73,325.37C610.24,325.53 601.73,325.86 593.45,327.97C585.56,329.97 569.08,335.13 564.27,342.24C561.5,346.34 564.27,350.56 565.27,354.98C566.55,360.79 566.87,366.86 564.52,372.45Z" style="fill-opacity:0.1;fill-rule:nonzero;"/>
    </g>
    <g transform="matrix(1,0,0,1,-104.53,-50.34)">
        <path d="M590.89,400.08C597.56,408.37 604.43,416.83 613.57,422.27C616.36,423.92 619.48,425.27 622.72,425.16C627.52,424.96 631.49,421.54 635.01,418.26C652.585,401.901 669.276,384.617 685.01,366.48C689.94,360.79 695.01,354.86 701.76,351.55C707.859,406.588 709.451,462.033 706.52,517.33C706.552,518.374 706.31,519.408 705.82,520.33C704.77,521.92 702.57,522.15 700.66,522.22C644.21,524.34 585.5,526.04 533.8,503.22C537.39,492.57 536.8,481.05 537.15,469.81C537.72,451.38 540.92,433.13 545.34,415.26C547.51,406.49 549.98,397.8 552.6,389.16C554.78,381.92 556.44,369.16 561.31,363.69C572.51,373.69 581.48,388.38 590.89,400.08Z" style="fill:rgb(227,232,244);fill-rule:nonzero;"/>
    </g>
    <path d="M511.99,376.54L518.99,376.54L536.99,406.54L517.99,453.54L494.99,407.54L511.99,376.54Z" style="fill:rgb(63,61,86);fill-rule:nonzero;"/>
    <g transform="matrix(1,0,0,1,-104.53,-50.34)">
        <path d="M615.89,474.28C609.382,464.781 604.895,454.045 602.71,442.74C602.01,439.12 601.54,435.43 600.26,431.97C598.36,426.84 594.78,422.54 591.55,418.11C579.573,401.681 571.859,382.533 569.1,362.39C567.86,353.25 567.03,342.78 559.65,337.25C555.01,333.78 548.83,333.25 543.03,333.35C520.604,333.91 499.11,342.513 482.49,357.58C479.726,360.321 476.804,362.899 473.74,365.3C470.6,367.447 467.249,369.27 463.74,370.74C454.88,374.74 445.62,378.06 435.97,379.07C433.49,379.173 431.032,379.58 428.65,380.28C425.77,381.28 423.4,383.39 420.97,385.28C413.208,391.258 404.29,395.563 394.78,397.92C381.359,429.084 370.977,461.471 363.78,494.63C361.97,502.88 360.35,511.19 357.88,519.27C354.47,530.47 349.45,541.15 346.1,552.37C332.78,597.02 346.77,645.66 337.8,691.37L818.86,692.03C811.3,680.3 814.02,665.4 813.37,651.46C812.76,638.62 809.5,626.07 807.24,613.41C803.46,592.24 802.49,570.66 802.1,549.16C801.94,540.08 801.93,530.7 805.44,522.33C812.03,506.62 829.13,498.33 845.32,493C853.06,490.46 861.2,488.14 867.32,482.71C873.59,477.1 876.85,468.86 878.85,460.71C867.94,439.21 853.76,418.71 835.85,402.58C829.12,396.58 821.93,390.95 816.25,383.93C812.79,379.64 809.92,374.86 806.1,370.93C796.54,361 782.1,357.26 768.34,356.71C764.09,356.54 759.78,356.62 755.66,355.56C743.84,352.56 736.31,341.01 725.66,335.03C718.252,330.896 709.597,329.568 701.29,331.29C695.29,332.54 689.15,336.1 687.8,342.02C687.05,345.35 687.97,348.79 688.32,352.18C689.4,362.61 685.07,372.83 679.83,381.91C661,414.32 630.21,439.61 615.89,474.28Z" style="fill-rule:nonzero;"/>
    </g>
    <g transform="matrix(1,0,0,1,-104.53,-50.34)">
        <path d="M721,274.38C720.989,329.779 675.399,375.36 620,375.36C564.593,375.36 519,329.767 519,274.36C519,218.953 564.593,173.36 620,173.36C639.169,173.36 657.947,178.817 674.13,189.09C703.293,207.603 721.007,239.837 721,274.38Z" style="fill:rgb(190,111,114);fill-rule:nonzero;"/>
    </g>
    <g transform="matrix(1,0,0,1,-104.53,-50.34)">
        <path d="M1062,726.16L1062,679.38L176.66,679.38C178.32,681.82 180.003,684.233 181.71,686.62C183,689.675 184.765,692.507 186.94,695.01C188.099,696.334 189.37,697.556 190.74,698.66C209.94,723.11 231.8,743.87 255.84,759.58C269.498,768.535 284.162,775.852 299.53,781.38L1034.17,781.38L1062,726.16Z" style="fill:rgb(63,61,86);fill-rule:nonzero;"/>
    </g>
    <g transform="matrix(1,0,0,1,-104.53,-50.34)">
        <path d="M638.91,625.88C625.34,624.8 611.23,621.42 598.45,626.1C594.093,627.839 589.96,630.096 586.14,632.82C572.336,642.087 559.623,652.882 548.24,665C544.95,668.49 541.73,672.17 539.71,676.53C536.86,682.68 536.61,689.69 534.71,696.2C533.62,699.93 531.96,703.71 532.62,707.54C533.28,711.37 537.7,714.8 541.01,712.76C540.952,713.132 540.923,713.508 540.923,713.884C540.923,717.911 544.237,721.224 548.263,721.224C548.349,721.224 548.434,721.223 548.52,721.22C553.58,721.046 558.467,719.325 562.52,716.29C562.786,718.795 565.006,720.672 567.52,720.52C576.19,719.95 584.45,715.52 591.87,710.68C600.58,705.04 609.23,698.62 619.43,696.68C613.155,699.541 607.627,703.817 603.28,709.17C601.61,711.22 600.05,713.62 601.89,716.79C602.99,718.57 604.683,719.905 606.67,720.56C618.09,724.56 630.5,717.94 638.12,708.76C641.19,705.05 643.9,700.76 648.12,698.51C654.91,694.86 663.28,697.42 670.92,696.36C679.4,695.2 686.53,689.67 694.32,686.1C704.69,681.36 716.25,680.1 727.32,677.28C728.648,677.086 729.874,676.452 730.8,675.48C731.492,674.326 731.79,672.978 731.65,671.64C731.601,657.944 730.568,644.268 728.56,630.72C728.393,628.538 727.726,626.423 726.61,624.54C724.43,621.44 720.29,620.54 716.56,619.92C710.56,618.92 703.83,616.68 697.79,616.7C691.99,616.7 686.4,619.98 680.87,621.59C667.257,625.542 653.041,626.996 638.91,625.88Z" style="fill:rgb(190,111,114);fill-rule:nonzero;"/>
    </g>
    <g transform="matrix(1,0,0,1,-104.53,-50.34)">
        <path d="M702.17,607.85C687.182,609.424 673.077,615.73 661.91,625.85C674.38,622.7 687.8,619.59 699.82,624.15C712.072,628.8 720.22,640.607 720.22,653.712C720.22,666.17 712.857,677.515 701.48,682.59C703.91,685.32 707.48,686.66 711.03,687.69C736.68,695.17 764.14,690.69 790.37,685.59C795.17,684.66 800.37,683.43 803.3,679.48C805.91,675.91 805.83,671.1 805.6,666.67C804.93,653.88 803.82,640.67 798.02,629.28C790.16,613.82 776.51,608.06 760.07,609.85C740.73,611.91 721.53,605.89 702.17,607.85Z" style="fill:rgb(227,232,244);fill-rule:nonzero;"/>
    </g>
    <g transform="matrix(1,0,0,1,-104.53,-50.34)">
        <path d="M865.37,444C873.66,451.89 879.64,461.85 885.13,471.89C903.73,505.883 917.982,542.081 927.55,579.63C928.49,583.32 929.42,587.11 931.62,590.22C934.82,594.73 940.25,597.22 943.74,601.48C947.93,606.66 948.74,613.96 947.36,620.48C945.98,627 942.69,632.95 939.36,638.72C930.25,654.5 919.5,670.79 902.77,678C895.77,681 888.12,682.24 880.55,683.23C852.117,686.971 823.385,687.899 794.77,686C799.77,680.2 800.25,671.64 798.48,664.19C796.71,656.74 793.02,649.91 790.48,642.7C788.48,637.07 787.07,631.07 783.56,626.23C780.973,622.908 777.784,620.103 774.16,617.96C765.925,612.733 756.662,609.336 747,608C754.17,602.4 763.46,600.54 772.2,598C780.94,595.46 790.08,591.56 794.66,583.7C797.41,578.99 798.17,573.4 798.54,567.96C799.656,551.591 797.744,535.156 792.9,519.48C789.68,509.05 785.12,498.15 787.9,487.61C789.32,482.29 792.51,477.61 795.64,473.13C801.74,464.33 808.06,455.32 816.96,449.38C824.64,444.25 833.77,441.84 842.91,441.2C849.76,440.75 860.17,439.09 865.37,444Z" style="fill-rule:nonzero;"/>
    </g>
    <g transform="matrix(1,0,0,1,-104.53,-50.34)">
        <path d="M505.52,750.5C505.44,760.94 477.05,772.5 444.2,772.5C411.35,772.5 383.93,760.97 383.49,750.5C381.96,714.19 411.34,734.63 444.2,734.63C477.06,734.63 505.82,708.7 505.52,750.5Z" style="fill:rgb(63,61,86);fill-rule:nonzero;"/>
    </g>
    <g transform="matrix(1,0,0,1,-104.53,-50.34)">
        <path d="M505.52,750.5C505.44,760.94 477.05,772.5 444.2,772.5C411.35,772.5 383.93,760.97 383.49,750.5C381.96,714.19 411.34,734.63 444.2,734.63C477.06,734.63 505.82,708.7 505.52,750.5Z" style="fill-opacity:0.2;fill-rule:nonzero;"/>
    </g>
    <g transform="matrix(1,0,0,1,-104.53,-50.34)">
        <path d="M503.69,734.63C503.69,745.08 477.05,756.63 444.2,756.63C411.35,756.63 384.71,745.11 384.71,734.63C384.71,724.15 411.34,718.77 444.2,718.77C477.06,718.77 503.69,724.19 503.69,734.63Z" style="fill:rgb(63,61,86);fill-rule:nonzero;"/>
    </g>
    <g transform="matrix(1,0,0,1,-104.53,-50.34)">
        <path d="M503.69,734.63C503.69,745.08 477.05,756.63 444.2,756.63C411.35,756.63 384.71,745.11 384.71,734.63C384.71,724.15 411.34,718.77 444.2,718.77C477.06,718.77 503.69,724.19 503.69,734.63Z" style="fill:white;fill-opacity:0.1;fill-rule:nonzero;"/>
    </g>
    <g transform="matrix(1,0,0,1,-104.53,-50.34)">
        <path d="M492.09,730.51C492.03,738.66 469.89,747.64 444.26,747.64C418.63,747.64 397.26,738.64 396.9,730.51C395.71,702.19 418.63,718.13 444.26,718.13C469.89,718.13 492.33,697.91 492.09,730.51Z" style="fill:rgb(63,61,86);fill-rule:nonzero;"/>
    </g>
    <g transform="matrix(1,0,0,1,-104.53,-50.34)">
        <path d="M492.09,730.51C492.03,738.66 469.89,747.64 444.26,747.64C418.63,747.64 397.26,738.64 396.9,730.51C395.71,702.19 418.63,718.13 444.26,718.13C469.89,718.13 492.33,697.91 492.09,730.51Z" style="fill-opacity:0.2;fill-rule:nonzero;"/>
    </g>
    <g transform="matrix(1,0,0,1,-104.53,-50.34)">
        <path d="M490.66,716.12C490.66,725.23 469.89,735.27 444.26,735.27C418.63,735.27 397.85,725.27 397.85,716.12C397.85,706.97 418.63,702.3 444.26,702.3C469.89,702.3 490.66,707 490.66,716.12Z" style="fill:rgb(63,61,86);fill-rule:nonzero;"/>
    </g>
    <g transform="matrix(1,0,0,1,-104.53,-50.34)">
        <path d="M490.66,716.12C490.66,725.23 469.89,735.27 444.26,735.27C418.63,735.27 397.85,725.27 397.85,716.12C397.85,706.97 418.63,702.3 444.26,702.3C469.89,702.3 490.66,707 490.66,716.12Z" style="fill:white;fill-opacity:0.1;fill-rule:nonzero;"/>
    </g>
    <g transform="matrix(1,0,0,1,-104.53,-50.34)">
        <path d="M333.05,776.52C333.05,776.52 341.83,766.84 343.34,755.96C344.85,745.08 300.44,728.37 300.44,728.37C300.44,728.37 285.04,737.37 284.52,745.8C284.52,745.8 314,777.48 333.05,776.52Z" style="fill:rgb(63,61,86);fill-rule:nonzero;"/>
    </g>
    <g transform="matrix(1,0,0,1,-104.53,-50.34)">
        <path d="M333.05,776.52C333.05,776.52 341.83,766.84 343.34,755.96C344.85,745.08 300.44,728.37 300.44,728.37C300.44,728.37 285.04,737.37 284.52,745.8C284.52,745.8 314,777.48 333.05,776.52Z" style="fill-opacity:0.2;fill-rule:nonzero;"/>
    </g>
    <g transform="matrix(0.514589,-0.857437,0.857437,0.514589,-608.52,583.7)">
        <ellipse cx="307.98" cy="762.13" rx="9.66" ry="28.78" style="fill:rgb(63,61,86);"/>
    </g>
    <g transform="matrix(0.514589,-0.857437,0.857437,0.514589,-608.52,583.7)">
        <ellipse cx="307.98" cy="762.13" rx="9.66" ry="28.78" style="fill:white;fill-opacity:0.1;"/>
    </g>
    <path d="M239.43,702.29L264.69,660.18L239,638.36L218.97,634.61L212.72,645.88L195.14,678.5L239.43,702.29Z" style="fill:rgb(63,61,86);fill-rule:nonzero;"/>
    <path d="M239.43,702.29L264.69,660.18L239,638.36L218.97,634.61L212.72,645.88L195.14,678.5L239.43,702.29Z" style="fill:white;fill-opacity:0.1;fill-rule:nonzero;"/>
    <g transform="matrix(1,0,0,1,-104.53,-50.34)">
        <path d="M369.56,714.67C369.56,714.67 386.62,696.54 382.24,686.74C377.86,676.94 354.73,657.3 340,660.29C325.27,663.28 322.91,685 322.91,685L369.56,714.67Z" style="fill:rgb(63,61,86);fill-rule:nonzero;"/>
    </g>
    <g transform="matrix(1,0,0,1,-104.53,-50.34)">
        <path d="M369.56,714.67C369.56,714.67 386.62,696.54 382.24,686.74C377.86,676.94 354.73,657.3 340,660.29C325.27,663.28 322.91,685 322.91,685L369.56,714.67Z" style="fill-opacity:0.2;fill-rule:nonzero;"/>
    </g>
    <g transform="matrix(1,0,0,1,-104.53,-50.34)">
        <path d="M175.51,635L306.18,714.48C306.18,714.48 318.6,712.87 317.25,696.24L187.83,615.9C185.196,614.263 182.074,613.592 179,614C175.46,614.48 171.27,615.77 169.91,619.14C169.562,619.997 169.321,620.894 169.19,621.81C168.444,627.069 170.945,632.286 175.51,635Z" style="fill:rgb(63,61,86);fill-rule:nonzero;"/>
    </g>
    <g transform="matrix(1,0,0,1,-104.53,-50.34)">
        <path d="M175.51,635L306.18,714.48C306.18,714.48 318.6,712.87 317.25,696.24L187.83,615.9C185.196,614.263 182.074,613.592 179,614C175.46,614.48 171.27,615.77 169.91,619.14C169.562,619.997 169.321,620.894 169.19,621.81C168.444,627.069 170.945,632.286 175.51,635Z" style="fill-opacity:0.2;fill-rule:nonzero;"/>
    </g>
    <g transform="matrix(1,0,0,1,-104.53,-50.34)">
        <path d="M343.94,758.56C345.337,758.48 346.528,757.497 346.87,756.14C347.51,753.89 346.34,751.73 345.11,749.93C342.914,746.719 340.172,743.917 337.01,741.65C331.69,737.8 326.53,733.46 320.51,730.65C317.025,729.099 313.375,727.948 309.63,727.22C306.823,726.575 303.95,726.259 301.07,726.28C299.714,726.317 298.619,727.443 298.619,728.799C298.619,729.544 298.949,730.251 299.52,730.73C300.851,731.613 302.337,732.237 303.9,732.57C311.69,734.86 318.9,738.83 325.65,743.34C329.286,745.679 332.691,748.357 335.82,751.34C337.9,753.4 340.56,758.64 343.94,758.56Z" style="fill:rgb(63,61,86);fill-rule:nonzero;"/>
    </g>
    <g transform="matrix(1,0,0,1,-104.53,-50.34)">
        <path d="M343.94,758.56C345.337,758.48 346.528,757.497 346.87,756.14C347.51,753.89 346.34,751.73 345.11,749.93C342.914,746.719 340.172,743.917 337.01,741.65C331.69,737.8 326.53,733.46 320.51,730.65C317.025,729.099 313.375,727.948 309.63,727.22C306.823,726.575 303.95,726.259 301.07,726.28C299.714,726.317 298.619,727.443 298.619,728.799C298.619,729.544 298.949,730.251 299.52,730.73C300.851,731.613 302.337,732.237 303.9,732.57C311.69,734.86 318.9,738.83 325.65,743.34C329.286,745.679 332.691,748.357 335.82,751.34C337.9,753.4 340.56,758.64 343.94,758.56Z" style="fill-opacity:0.2;fill-rule:nonzero;"/>
    </g>
    <g transform="matrix(1,0,0,1,-104.53,-50.34)">
        <path d="M364.8,717.89C364.8,717.89 377.62,718.2 367.01,705.31C356.4,692.42 337.42,679.63 323.91,682.52C323.91,682.52 318.31,687.16 323.15,687.96C327.74,688.72 349.15,692.96 358.99,704.89C360.067,706.185 361.27,707.371 362.58,708.43C364.89,710.31 368,713.87 364.8,717.89Z" style="fill:rgb(63,61,86);fill-rule:nonzero;"/>
    </g>
    <g transform="matrix(1,0,0,1,-104.53,-50.34)">
        <path d="M364.8,717.89C364.8,717.89 377.62,718.2 367.01,705.31C356.4,692.42 337.42,679.63 323.91,682.52C323.91,682.52 318.31,687.16 323.15,687.96C327.74,688.72 349.15,692.96 358.99,704.89C360.067,706.185 361.27,707.371 362.58,708.43C364.89,710.31 368,713.87 364.8,717.89Z" style="fill-opacity:0.2;fill-rule:nonzero;"/>
    </g>
    <g transform="matrix(0.514589,-0.857437,0.857437,0.514589,-507.76,586.73)">
        <ellipse cx="361.03" cy="674.65" rx="9.66" ry="28.78" style="fill:rgb(63,61,86);"/>
    </g>
    <g transform="matrix(0.514589,-0.857437,0.857437,0.514589,-507.76,586.73)">
        <ellipse cx="361.03" cy="674.65" rx="9.66" ry="28.78" style="fill:white;fill-opacity:0.1;"/>
    </g>
    <g transform="matrix(1,0,0,1,-104.53,-50.34)">
        <path d="M301.07,686.18C300.718,690.906 298.04,695.16 293.93,697.52C287.22,701.1 277.8,697.91 274.64,690.99C273,687.39 272.97,683.35 272.64,679.38C272.533,678.085 272.359,676.797 272.12,675.52C271.12,670.37 266.86,664.9 261.71,665.92C257.46,666.75 255.22,671.52 254.71,675.82C254.578,677.002 254.512,678.191 254.51,679.38C254.51,680.62 254.56,681.86 254.63,683.1C254.77,685.64 254.99,688.19 254.98,690.73C254.98,695.73 253.9,701.04 250.29,704.47C245.91,708.64 239.19,708.83 233.13,708.76C218.34,708.61 201.88,707.76 190.75,698.66C189.38,697.556 188.109,696.334 186.95,695.01C184.775,692.507 183.01,689.675 181.72,686.62C180.729,684.287 179.968,681.862 179.45,679.38C177.79,671.63 178.16,663.18 179.52,655.32C180.4,650.18 182.1,644.55 185.86,641.27C186.755,640.488 187.768,639.85 188.86,639.38C190.66,638.62 192.7,638.38 194.27,637.19C195.84,636 196.86,633.84 198.52,632.54C201.85,629.93 206.91,631.05 210.81,630.17L210.98,630.17L211.19,630.11C215.4,629.11 219.29,626.81 223.26,625.11C224.97,624.38 226.68,623.68 228.4,623.06C232.682,621.35 237.306,620.665 241.9,621.06C256.9,622.77 274.9,631.87 285.17,642.79C287.7,645.302 289.67,648.322 290.95,651.65C291.789,654.439 292.253,657.328 292.33,660.24C292.6,664.35 292.82,668.45 294.86,671.96C296.1,674.08 297.92,675.81 299.21,677.96C299.507,678.443 299.768,678.948 299.99,679.47C300.907,681.581 301.278,683.888 301.07,686.18Z" style="fill:rgb(190,111,114);fill-rule:nonzero;"/>
    </g>
    <g transform="matrix(1,0,0,1,-104.53,-50.34)">
        <path d="M268.08,636.82C274.19,639.98 280.2,643.55 285,648.47C289.8,653.39 293.34,659.84 293.62,666.72C297.815,661.644 301.415,656.105 304.35,650.21C306.67,645.56 308.58,640.06 306.52,635.28C305.536,633.256 304.151,631.453 302.45,629.98C293.45,621.46 281.35,616.75 269.11,614.82C255.88,612.73 229.45,608.17 227.42,627.43C242.24,626.73 254.84,630 268.08,636.82Z" style="fill:rgb(227,232,244);fill-rule:nonzero;"/>
    </g>
    <g transform="matrix(1,0,0,1,-104.53,-50.34)">
        <path d="M432,390.56C422.21,394.79 410.75,391.8 400.4,394.36C392.76,396.25 386.19,401.04 379.99,405.89C367.63,415.55 355.45,426.35 348.84,440.58C346.68,445.24 345.14,450.19 342.55,454.58C338.36,461.74 331.67,467.07 324.7,471.58C306.89,483.06 286.21,490.24 270.36,504.3C263.58,510.3 257.87,517.42 252.56,524.75C246.32,533.35 240.35,542.95 240.23,553.57C240.23,557.73 241.05,561.95 240.23,566.04C238.47,575.19 229.23,580.87 225.06,589.21C221.06,597.16 222.01,606.98 217.56,614.66C214.64,619.66 209.35,624.66 211.02,630.18C223.28,620.97 238.02,617.18 253.02,620.18C260.53,621.67 267.54,625.02 274.26,628.69C282.05,632.95 289.73,637.79 295.36,644.69C300.99,651.59 304.36,660.77 302.36,669.42C310.47,665.42 315.27,656.88 318.6,648.48C321.93,640.08 324.47,631.11 330,624C332.85,620.33 336.39,617.28 339.76,614.09C358.47,596.36 371.96,573.96 385.2,551.85C398.853,529.063 412.5,506.263 426.14,483.45C429.92,477.12 433.72,470.75 436.45,463.91C445.62,440.91 439.68,414.05 432,390.56Z" style="fill-rule:nonzero;"/>
    </g>
    <ellipse cx="898.7" cy="634.73" rx="57.01" ry="10.96" style="fill:rgb(58,17,0);"/>
    <ellipse cx="897.74" cy="630.08" rx="6.64" ry="8.69" style="fill:rgb(63,61,86);"/>
    <ellipse cx="897.74" cy="619.45" rx="6.64" ry="8.69" style="fill:rgb(63,61,86);"/>
    <ellipse cx="897.74" cy="608.83" rx="6.64" ry="8.69" style="fill:rgb(63,61,86);"/>
    <ellipse cx="897.74" cy="598.21" rx="6.64" ry="8.69" style="fill:rgb(63,61,86);"/>
    <ellipse cx="897.74" cy="587.59" rx="6.64" ry="8.69" style="fill:rgb(63,61,86);"/>
    <ellipse cx="897.74" cy="576.97" rx="6.64" ry="8.69" style="fill:rgb(63,61,86);"/>
    <ellipse cx="897.74" cy="566.35" rx="6.64" ry="8.69" style="fill:rgb(63,61,86);"/>
    <g transform="matrix(1,0,0,1,-104.53,-50.34)">
        <path d="M1027.13,544C1028.04,542.848 1028.86,541.635 1029.6,540.37L1012.16,537.5L1031.02,537.64C1034.67,529.687 1034.89,520.57 1031.63,512.45L1006.32,525.58L1029.66,508.42C1023.99,498.598 1013.47,492.528 1002.12,492.528C984.68,492.528 970.325,506.883 970.325,524.328C970.325,531.463 972.726,538.394 977.14,544C975.732,545.8 974.519,547.744 973.52,549.8L996.16,561.57L972,553.46C968.558,563.629 970.487,574.878 977.12,583.32C972.716,588.923 970.32,595.846 970.32,602.973C970.32,620.418 984.675,634.773 1002.12,634.773C1019.57,634.773 1033.92,620.418 1033.92,602.973C1033.92,595.846 1031.52,588.923 1027.12,583.32C1036.16,571.82 1036.16,555.5 1027.12,544L1027.13,544Z" style="fill:rgb(10,121,0);fill-rule:nonzero;"/>
    </g>
    <g transform="matrix(1,0,0,1,-104.53,-50.34)">
        <path d="M970.34,563.66C970.328,570.791 972.725,577.72 977.14,583.32C972.736,588.923 970.34,595.846 970.34,602.973C970.34,620.418 984.695,634.773 1002.14,634.773C1019.59,634.773 1033.94,620.418 1033.94,602.973C1033.94,595.846 1031.54,588.923 1027.14,583.32C1031.39,577.91 970.34,560.09 970.34,563.66Z" style="fill:rgb(65,255,69);fill-opacity:0.1;fill-rule:nonzero;"/>
    </g>
    <g transform="matrix(1,0,0,1,-104.53,-50.34)">
        <path d="M570,230.28C577,232.98 583.83,236.86 591.34,237.37C600.87,238.01 609.87,233.15 619.34,231.81C636.69,229.36 653.16,238.81 669.46,245.23C685.76,251.65 706.76,254.31 718.71,241.5C728.86,230.61 727.46,212.5 719.3,200.1C711.14,187.7 697.81,179.68 684.63,172.77C670.09,165.15 654.93,158.22 638.74,155.53C604.38,149.84 569.47,164.05 540.96,184.06C531.5,190.7 522.15,198.45 517.63,209.06C515.07,215.06 514.27,222.74 516.5,228.99C520.16,239.27 522.56,238.05 530.15,235.37C544.65,230.27 553.22,223.86 570,230.28Z" style="fill:rgb(63,61,86);fill-rule:nonzero;"/>
    </g>
</svg>
