<?xml version="1.0" encoding="UTF-8" standalone="no"?>
<!DOCTYPE svg PUBLIC "-//W3C//DTD SVG 1.1//EN" "http://www.w3.org/Graphics/SVG/1.1/DTD/svg11.dtd">
<svg width="100%" height="100%" viewBox="0 0 993 519" version="1.1" xmlns="http://www.w3.org/2000/svg" xmlns:xlink="http://www.w3.org/1999/xlink" xml:space="preserve" xmlns:serif="http://www.serif.com/" style="fill-rule:evenodd;clip-rule:evenodd;stroke-linejoin:round;stroke-miterlimit:2;">
    <g transform="matrix(1,0,0,1,-103.795,-190.523)">
        <path d="M180.361,682.077C164.716,690.513 158,708.418 158,708.418C158,708.418 176.65,712.645 192.295,704.208C207.941,695.772 214.657,677.867 214.657,677.867C214.657,677.867 196.007,673.64 180.361,682.077Z" style="fill:rgb(241,241,241);fill-rule:nonzero;"/>
    </g>
    <g transform="matrix(1,0,0,1,-103.795,-190.523)">
        <path d="M185.509,687.875C176.345,703.106 158.144,708.972 158.144,708.972C158.144,708.972 154.8,690.144 163.963,674.913C173.127,659.682 191.328,653.816 191.328,653.816C191.328,653.816 194.672,672.644 185.509,687.875Z" style="fill:rgb(241,241,241);fill-rule:nonzero;"/>
    </g>
    <rect x="488.774" y="11.422" width="450.806" height="2" style="fill:rgb(203,203,203);"/>
    <rect x="549.181" y="12.176" width="2" height="63.563" style="fill:rgb(203,203,203);"/>
    <path d="M715.205,126.123L612.156,126.123L612.156,12.113L614.156,12.113L614.156,124.123L715.205,124.123L715.205,126.123Z" style="fill:rgb(203,203,203);fill-rule:nonzero;"/>
    <rect x="679.885" y="12.176" width="2" height="63.563" style="fill:rgb(203,203,203);"/>
    <rect x="713.443" y="125.176" width="2" height="63.563" style="fill:rgb(203,203,203);"/>
    <rect x="817.001" y="12.176" width="2" height="63.563" style="fill:rgb(203,203,203);"/>
    <rect x="885.559" y="12.176" width="2" height="63.563" style="fill:rgb(203,203,203);"/>
    <rect x="531.432" y="85.462" width="37.978" height="14.797" style="fill:rgb(255,241,58);"/>
    <rect x="661.432" y="85.462" width="37.978" height="14.797" style="fill:rgb(63,61,86);"/>
    <rect x="799.432" y="85.462" width="37.978" height="14.797" style="fill:rgb(203,203,203);"/>
    <rect x="865.432" y="85.462" width="37.978" height="14.797" style="fill:rgb(108,99,255);"/>
    <rect x="954.432" y="5.462" width="37.978" height="14.797" style="fill:rgb(63,61,86);"/>
    <rect x="695.432" y="197.462" width="37.978" height="14.797" style="fill:rgb(63,61,86);"/>
    <rect x="414.98" y="0" width="60.882" height="23.72" style="fill:rgb(255,211,8);"/>
    <path d="M282.481,241.153L286.458,277.03L337.259,277.905L331.128,234.987L282.481,241.153Z" style="fill:rgb(255,183,183);fill-rule:nonzero;"/>
    <g transform="matrix(1,0,0,1,-103.795,-190.523)">
        <path d="M363.388,511.473C364.621,509.996 365.297,508.132 365.297,506.208C365.297,503.265 363.715,500.538 361.159,499.078L363.517,480.458L352.552,476.265L349.591,502.607C349.043,503.732 348.758,504.969 348.758,506.221C348.758,510.751 352.485,514.478 357.015,514.478C359.48,514.478 361.82,513.375 363.388,511.473Z" style="fill:rgb(255,183,183);fill-rule:nonzero;"/>
    </g>
    <path d="M351.976,507.436L362.715,507.436L367.823,466.017L351.974,466.018L351.976,507.436Z" style="fill:rgb(255,183,183);fill-rule:nonzero;"/>
    <g transform="matrix(1,0,0,1,-103.795,-190.523)">
        <path d="M453.032,694.454L474.18,694.453C481.573,694.453 487.656,700.537 487.657,707.93L487.657,708.367L453.033,708.369L453.032,694.454Z" style="fill:rgb(47,46,65);fill-rule:nonzero;"/>
    </g>
    <path d="M229.353,507.436L240.091,507.436L245.199,466.017L229.351,466.018L229.353,507.436Z" style="fill:rgb(255,183,183);fill-rule:nonzero;"/>
    <g transform="matrix(1,0,0,1,-103.795,-190.523)">
        <path d="M330.408,694.454L351.557,694.453C358.949,694.453 365.033,700.537 365.033,707.93L365.033,708.367L330.409,708.369L330.408,694.454Z" style="fill:rgb(47,46,65);fill-rule:nonzero;"/>
    </g>
    <g transform="matrix(1,0,0,1,-103.795,-190.523)">
        <path d="M348.605,496.935L353.328,442.299L367.107,392.398C369.197,384.945 375.676,379.504 383.378,378.733L383.827,378.69L386.275,416.144L368.655,452.351L362.831,495.787L348.605,496.935Z" style="fill:rgb(72,51,0);fill-rule:nonzero;"/>
    </g>
    <g transform="matrix(1,0,0,1,-103.795,-190.523)">
        <path d="M389.448,446.677L382.215,459.696C382.215,459.696 354.006,488.214 351.836,532.268L325.648,682.207L349.918,681.608L399.059,541.077L433.817,600.705L451.196,678.612L478.763,673.518L466.478,583.027L442.807,498.828L440.409,452.983L389.448,446.677Z" style="fill:rgb(72,51,0);fill-rule:nonzero;"/>
    </g>
    <circle cx="310.719" cy="148.577" r="21.513" style="fill:rgb(255,183,183);"/>
    <g transform="matrix(1,0,0,1,-103.795,-190.523)">
        <path d="M329.599,387.962C333.595,380.155 334.96,371.29 338.036,363.076C341.112,354.863 346.701,346.714 355.174,344.45C359.98,343.166 365.088,343.95 370.025,343.339C374.366,342.801 379.039,340.585 380.702,336.73C380.367,332.908 380.845,329.058 382.102,325.434C385.199,316.635 392.584,309.689 401.194,306.098C408.187,303.181 416.241,302.357 423.383,304.89C430.524,307.423 436.519,313.614 437.803,321.082C439.087,328.55 434.97,336.889 427.872,339.542C422.776,341.446 416.213,340.812 412.885,345.116C409.514,349.477 411.931,355.832 414.992,360.415L414.783,360.627C404.783,360.744 393.973,358.812 387.085,351.561C386.337,350.77 385.65,349.923 385.028,349.03C384.817,349.368 384.596,349.698 384.358,350.014C380.889,354.619 375.46,357.232 370.286,359.778C365.113,362.323 359.748,365.18 356.64,370.037C351.025,378.814 354.711,390.635 351.5,400.547C348.497,409.818 339.805,416.14 330.059,416.14C320.843,416.14 312.515,410.487 309.112,401.921C317.853,402.651 325.602,395.769 329.599,387.962Z" style="fill:rgb(47,46,65);fill-rule:nonzero;"/>
    </g>
    <g transform="matrix(1,0,0,1,-103.795,-190.523)">
        <path d="M467.354,510.759C467.479,510.184 467.543,509.596 467.543,509.007C467.543,504.621 464.028,500.969 459.645,500.8L453.123,483.201L441.462,484.556L451.02,509.28C451.144,513.721 454.832,517.308 459.275,517.308C463.163,517.308 466.549,514.562 467.354,510.759Z" style="fill:rgb(255,183,183);fill-rule:nonzero;"/>
    </g>
    <g transform="matrix(1,0,0,1,-103.795,-190.523)">
        <path d="M386.044,451.972L379.819,422.022L377.863,399.209C376.755,386.274 380.373,373.366 388.043,362.891L390.033,360.173L423.536,372.081L439.87,393.614C449.838,403.636 442.034,413.231 440.946,414.467L440.612,444.729L440.236,444.78L386.044,451.972Z" style="fill:rgb(72,51,0);fill-rule:nonzero;"/>
    </g>
    <g transform="matrix(1,0,0,1,-103.795,-190.523)">
        <path d="M447.737,504.49L422.822,447.077L419.202,394.478L418.472,383.423C418.456,383.191 418.449,382.959 418.449,382.727C418.449,376.931 423.218,372.161 429.015,372.161C434.284,372.161 438.788,376.103 439.487,381.326L447.33,439.962L460.83,498.458L447.737,504.49Z" style="fill:rgb(72,51,0);fill-rule:nonzero;"/>
    </g>
    <g transform="matrix(1,0,0,1,-103.795,-190.523)">
        <path d="M641.795,709.257L104.795,709.257C104.246,709.257 103.795,708.806 103.795,708.257C103.795,707.709 104.246,707.257 104.795,707.257L641.795,707.257C642.343,707.257 642.795,707.709 642.795,708.257C642.795,708.806 642.343,709.257 641.795,709.257Z" style="fill:rgb(203,203,203);fill-rule:nonzero;"/>
    </g>
</svg>
